<?xml version="1.0" encoding="UTF-8"?>
<svg xmlns="http://www.w3.org/2000/svg" xmlns:xlink="http://www.w3.org/1999/xlink" width="24px" height="24px" viewBox="0 0 24 24" version="1.1">
<g id="surface1">
<path style=" stroke:none;fill-rule:nonzero;fill:rgb(0%,0%,0%);fill-opacity:1;" d="M 5.75 3 C 4.238281 3 3 4.238281 3 5.75 L 3 18.25 C 3 19.761719 4.238281 21 5.75 21 L 18.25 21 C 19.761719 21 21 19.761719 21 18.25 L 21 5.75 C 21 4.238281 19.761719 3 18.25 3 Z M 5.75 4.5 L 18.25 4.5 C 18.949219 4.5 19.5 5.050781 19.5 5.75 L 19.5 15.976562 L 16.492188 13.070312 C 16.105469 12.691406 15.59375 12.5 15.085938 12.5 C 14.582031 12.5 14.070312 12.691406 13.679688 13.070312 L 12.65625 14.0625 L 9.566406 11.070312 C 9.179688 10.695312 8.667969 10.5 8.160156 10.5 C 7.648438 10.5 7.140625 10.695312 6.753906 11.070312 L 4.5 13.25 L 4.5 5.75 C 4.5 5.050781 5.050781 4.5 5.75 4.5 Z M 15.25 6.5 C 14.5625 6.5 13.953125 6.785156 13.5625 7.21875 C 13.175781 7.65625 13 8.207031 13 8.75 C 13 9.292969 13.175781 9.84375 13.5625 10.28125 C 13.953125 10.714844 14.5625 11 15.25 11 C 15.9375 11 16.546875 10.714844 16.9375 10.28125 C 17.324219 9.84375 17.5 9.292969 17.5 8.75 C 17.5 8.207031 17.324219 7.65625 16.9375 7.21875 C 16.546875 6.785156 15.9375 6.5 15.25 6.5 Z M 15.25 8 C 15.5625 8 15.703125 8.089844 15.8125 8.21875 C 15.925781 8.34375 16 8.542969 16 8.75 C 16 8.957031 15.925781 9.15625 15.8125 9.28125 C 15.703125 9.410156 15.5625 9.5 15.25 9.5 C 14.9375 9.5 14.796875 9.410156 14.6875 9.28125 C 14.574219 9.15625 14.5 8.957031 14.5 8.75 C 14.5 8.542969 14.574219 8.34375 14.6875 8.21875 C 14.796875 8.089844 14.9375 8 15.25 8 Z M 8.160156 12 C 8.289062 12 8.417969 12.046875 8.523438 12.148438 L 11.578125 15.101562 L 7.03125 19.5 L 5.75 19.5 C 5.050781 19.5 4.5 18.949219 4.5 18.25 L 4.5 15.335938 L 7.796875 12.148438 C 7.902344 12.046875 8.03125 12 8.160156 12 Z M 15.085938 14 C 15.21875 14 15.347656 14.046875 15.453125 14.148438 L 19.5 18.0625 L 19.5 18.25 C 19.5 18.949219 18.949219 19.5 18.25 19.5 L 9.191406 19.5 L 14.722656 14.148438 C 14.828125 14.046875 14.957031 14 15.085938 14 Z M 15.085938 14 "/>
</g>
</svg>
