<svg width="1019" height="190" viewBox="0 0 1019 190" fill="none" xmlns="http://www.w3.org/2000/svg">
<path d="M2.09375 46.8886C2.09375 36.632 8.72937 34.8158 18.3498 31.7693C38.3218 25.4448 60.1062 20.2826 80.9868 18.3552C156.25 11.4078 231.34 2.09912 307.094 2.09912C353.579 2.09912 399.22 5.62725 445.214 12.1029C489.656 18.3601 538.008 25.8592 579.582 43.7056C607.338 55.6202 644.129 71.8562 665.068 94.4063C676.188 106.381 691.785 127.505 689.168 145.107C683.017 186.487 621.094 190.103 589.472 186.941C558.313 183.825 490.351 152.161 524.448 113.05C544.147 90.4536 571.279 78.73 598.907 68.9423C648.535 51.3612 700.919 41.1058 753.056 34.6113C839.817 23.8036 930.36 12.4247 1017.02 28.4726" stroke="#8EA1D0" stroke-width="3" stroke-linecap="round"/>
</svg>
