<svg width="935" height="180" viewBox="0 0 935 180" fill="none" xmlns="http://www.w3.org/2000/svg">
<path d="M2 47.3716C17.5978 85.657 69.8196 103.467 105.334 115.92C139.32 127.837 173.467 132.589 209.464 133.199C248.982 133.869 289.313 135.076 328.486 129.107C371.467 122.557 412.325 110.912 454.214 99.7775C485.922 91.3487 521 77.0914 546.067 55.4427C555.465 47.326 566.898 37.5003 564.483 23.6127C561.861 8.53572 539.519 3.73897 527.082 2.58211C486.926 -1.15335 437.326 13.001 413.063 47.5989C403.363 61.4294 402.145 88.8349 407.606 104.438C416.295 129.263 435.816 145.608 459.671 155.366C495.35 169.962 537.291 179.509 575.851 177.875C632.034 175.494 689.267 153.422 740.685 132.403C785.231 114.194 829.187 91.9736 872.325 70.562C892.442 60.5768 911.649 48.3596 933.029 41.2329" stroke="#8EA1D0" stroke-width="3" stroke-linecap="round"/>
</svg>
