<svg width="1174" height="154" viewBox="0 0 1174 154" fill="none" xmlns="http://www.w3.org/2000/svg">
<path d="M5.7334 39.6236C37.8976 41.7678 64.9158 57.2596 95.4773 64.8999C119.153 70.8187 141.258 81.7667 165.434 86.6019C207.351 94.9853 250.388 95.0348 292.965 94.772C387.386 94.1892 484.743 71.4975 575.984 48.6873C588.963 45.4426 601.381 41.1778 614.154 37.3257C620.711 35.3482 631.125 33.7189 635.345 27.6237C644.432 14.4985 619.733 18.6879 613.388 20.2195C597.662 24.0155 576.144 29.8054 563.09 39.7512C551.471 48.6039 553.328 68.6293 557.218 80.9849C572.521 129.595 642.066 141.056 685.898 146.346C727.206 151.331 769.939 146.054 810.748 139.452C862.293 131.114 914.654 116.175 963.683 98.3465C1009.86 81.5549 1053.56 59.0741 1099.64 41.7938C1123.41 32.8796 1148.81 21.5206 1168.45 5.15576" stroke="#8EA1D0" stroke-width="10" stroke-linecap="round"/>
</svg>
