<svg width="1166" height="147" viewBox="0 0 1166 147" fill="none" xmlns="http://www.w3.org/2000/svg">
<path d="M1.73438 36.6236C33.8986 38.7678 60.9168 54.2596 91.4783 61.8999C115.154 67.8187 137.259 78.7667 161.435 83.6019C203.352 91.9853 246.389 92.0348 288.966 91.772C383.387 91.1892 480.744 68.4975 571.985 45.6873C584.964 42.4426 597.382 38.1778 610.155 34.3257C616.712 32.3482 627.126 30.7189 631.346 24.6237C640.433 11.4985 615.734 15.6879 609.389 17.2195C593.663 21.0155 572.145 26.8054 559.091 36.7512C547.472 45.6039 549.329 65.6293 553.219 77.9849C568.522 126.595 638.067 138.056 681.899 143.346C723.207 148.331 765.94 143.054 806.749 136.452C858.294 128.114 910.655 113.175 959.684 95.3465C1005.86 78.5549 1049.56 56.0741 1095.64 38.7938C1119.41 29.8796 1144.81 18.5206 1164.45 2.15576" stroke="#8EA1D0" stroke-width="3" stroke-linecap="round"/>
</svg>
