<svg width="59" height="100" viewBox="0 0 59 100" fill="none" xmlns="http://www.w3.org/2000/svg">
<path d="M54.0929 56.8483C54.3903 61.0493 54.1921 64.242 53.4981 66.4265C52.8041 68.611 51.9118 71.0475 50.8212 73.7361C49.8298 74.2402 49.2845 74.7444 49.1854 75.2485C49.0862 75.7526 48.8879 76.0887 48.5905 76.2567C47.6982 77.2649 46.6572 78.0211 45.4675 78.5252C44.377 78.8613 43.1872 78.9453 41.8984 78.7773C40.7087 78.6092 39.5685 78.1051 38.478 77.2649C37.3874 76.4247 36.6438 75.3325 36.2473 73.9882C35.7516 74.1562 35.4046 74.1562 35.2063 73.9882C35.008 73.6521 34.7601 73.4001 34.4627 73.232C34.4627 71.5516 33.967 70.7114 32.9756 70.7114C33.0747 69.0311 32.926 68.0228 32.5294 67.6868C32.232 67.3507 31.9841 66.9306 31.7859 66.4265C32.0833 65.7543 32.1329 65.1662 31.9346 64.6621C31.7363 63.9899 31.7363 63.2337 31.9346 62.3936C31.7363 61.7214 31.4884 61.3013 31.191 61.1333C30.9927 60.9652 30.7944 60.7132 30.5962 60.3771C30.2987 59.2008 30.3979 58.2766 30.8936 57.6045C31.3893 56.9323 31.5876 55.9241 31.4884 54.5798C31.2902 54.2437 30.9432 53.9917 30.4474 53.8236C30.0509 53.6556 29.7039 53.4035 29.4064 53.0674C29.6047 52.5633 29.5552 52.0592 29.2577 51.5551C29.0594 51.051 28.8612 50.6309 28.6629 50.2948C28.8612 49.1185 29.0594 48.3624 29.2577 48.0263C29.456 47.6902 29.5552 47.2701 29.5552 46.766C31.6372 42.7331 33.3226 39.2043 34.6114 36.1796C35.9994 32.9869 37.5361 29.9622 39.2215 27.1056C40.213 26.0973 41.1053 25.4252 41.8984 25.0891C42.7907 24.753 43.4847 24.0809 43.9804 23.0726C45.2692 22.9046 46.6077 22.4845 47.9957 21.8124C49.4828 20.9722 50.7716 21.3923 51.8622 23.0726C51.8622 23.9128 51.4656 24.585 50.6725 25.0891C49.8794 25.4252 49.3341 25.1731 49.0367 24.3329C48.6401 25.5092 48.2435 26.1814 47.8469 26.3494C47.5495 26.5174 47.3512 26.8535 47.2521 27.3576C44.0795 28.5339 41.7001 31.3065 40.1138 35.6755C38.5276 40.0445 38.2797 45.0016 39.3703 50.5469C40.1634 51.051 40.8574 50.967 41.4523 50.2948C42.1463 49.4546 42.7907 49.1185 43.3855 49.2866C44.6744 49.7907 45.5667 49.8747 46.0624 49.5386C46.5581 49.2026 46.9051 49.4546 47.1034 50.2948C47.9957 49.9587 48.6897 50.1268 49.1854 50.7989C49.6811 51.4711 50.2759 51.9752 50.9699 52.3113C52.0605 53.4875 52.7049 54.4958 52.9032 55.336C53.2006 56.0081 53.5972 56.5122 54.0929 56.8483ZM29.4064 62.3936C29.6047 63.2337 29.6047 64.326 29.4064 65.6703C29.2082 67.0146 28.7124 67.8548 27.9193 68.1909C27.5227 70.3754 27.1757 72.3078 26.8783 73.9882C26.5809 75.5005 26.1843 77.0129 25.6886 78.5252C24.8955 78.8613 24.2015 79.3654 23.6066 80.0376C23.1109 80.7097 22.5656 81.2138 21.9708 81.5499C20.2853 82.3901 18.6991 82.054 17.2119 80.5417C15.7248 79.0293 14.4359 77.3489 13.3454 75.5005C11.6599 72.6439 10.1232 69.6192 8.73524 66.4265C7.34725 63.0657 6.35582 59.7049 5.76097 56.3442C5.66182 55.8401 5.66182 55.42 5.76097 55.0839C5.86011 54.7478 5.90968 54.2437 5.90968 53.5716C5.31483 52.7314 5.0174 51.9752 5.0174 51.303C5.0174 50.4629 4.91826 49.7907 4.71997 49.2866C5.41397 47.9423 6.00882 46.4299 6.50454 44.7496C7.00025 43.0692 7.49596 41.3888 7.99167 39.7084C8.48738 38.028 9.03267 36.4317 9.62752 34.9193C10.2224 33.407 10.9659 32.1467 11.8582 31.1385C12.0565 29.7942 12.3539 28.87 12.7505 28.3658C13.1471 27.6937 13.4941 26.9375 13.7915 26.0973C14.8821 24.9211 15.8735 23.5768 16.7658 22.0644C17.6581 20.5521 18.7982 19.3758 20.1862 18.5356C20.9793 18.3676 21.822 18.1995 22.7143 18.0315C23.7058 17.8635 24.4493 18.3676 24.945 19.5438C24.945 20.384 24.8459 21.1402 24.6476 21.8124C24.4493 22.3165 24.251 22.9046 24.0528 23.5768C22.6648 23.9128 21.2768 24.501 19.8888 25.3412C18.5008 26.0133 17.5589 27.3576 17.0632 29.3741C16.6666 29.206 16.4188 29.3741 16.3196 29.8782C16.2205 30.3823 16.0222 30.8024 15.7248 31.1385C15.4274 32.4828 15.1795 33.9111 14.9812 35.4234C14.7829 36.9358 14.4359 38.1961 13.9402 39.2043C14.0394 40.5486 14.0394 41.8929 13.9402 43.2372C13.9402 44.4135 13.7419 45.5057 13.3454 46.514C13.7419 46.682 13.8906 47.1021 13.7915 47.7742C13.6924 48.2784 13.5932 48.7825 13.4941 49.2866C13.5932 50.1268 13.7915 50.7989 14.0889 51.303C14.4855 51.6391 14.7829 52.1432 14.9812 52.8154C15.7744 51.4711 16.6171 50.7149 17.5093 50.5469C18.5008 50.3788 19.4426 50.1268 20.3349 49.7907C21.3263 50.6309 22.6152 51.7231 24.2015 53.0674C25.8869 54.2437 27.027 55.504 27.6219 56.8483C28.0185 58.5287 28.3654 59.7049 28.6629 60.3771C29.0594 60.8812 29.3073 61.5534 29.4064 62.3936ZM35.9498 48.2784C35.355 47.1021 35.008 46.682 34.9089 47.0181C34.8097 47.3542 34.5619 47.5222 34.1653 47.5222C34.7601 48.8665 35.1567 49.4546 35.355 49.2866C35.5533 48.9505 35.7516 48.6144 35.9498 48.2784ZM46.8059 54.8318C45.7154 53.9917 44.8231 54.1597 44.1291 55.336C43.5342 56.3442 42.6915 56.8483 41.601 56.8483C40.8078 57.8565 39.9651 58.7807 39.0728 59.6209C38.1806 60.4611 37.1891 61.3013 36.0986 62.1415C36.4951 63.4858 36.743 64.0739 36.8421 63.9059C37.0404 63.7379 37.2883 63.7379 37.5857 63.9059C37.8831 62.5616 38.4284 61.6374 39.2215 61.1333C40.0147 60.6292 40.9565 60.2931 42.0471 60.125C42.2454 58.7807 42.9394 57.9405 44.1291 57.6045C45.418 57.1004 46.3102 56.1761 46.8059 54.8318ZM51.1186 58.1086C50.1272 57.6045 49.5819 57.5205 49.4828 57.8565C49.3837 58.0246 49.2349 58.1926 49.0367 58.3606C48.0452 58.8648 47.2521 59.5369 46.6572 60.3771C46.1615 61.2173 45.6658 61.8054 45.1701 62.1415C45.071 62.8137 44.6744 63.4018 43.9804 63.9059C43.2864 64.242 42.5428 64.494 41.7497 64.6621C42.7411 66.0064 43.5838 66.1744 44.2778 65.1662C45.071 64.158 45.765 63.6538 46.3598 63.6538C46.1615 64.326 45.9137 64.8301 45.6162 65.1662C45.3188 65.3342 45.071 65.6703 44.8727 66.1744C44.1787 65.6703 43.683 65.9224 43.3855 66.9306C43.0881 67.7708 42.5428 68.1909 41.7497 68.1909C40.56 67.1826 39.866 67.2667 39.6677 68.4429C39.866 68.779 40.0643 68.695 40.2625 68.1909C40.56 67.6868 40.907 67.5187 41.3035 67.6868C40.907 68.695 40.56 69.5352 40.2625 70.2073C40.0643 70.8795 39.7173 71.2996 39.2215 71.4676C39.7173 73.4841 40.5104 74.4923 41.601 74.4923C42.6915 74.4923 43.9308 74.6603 45.3188 74.9964C46.0128 73.9882 46.8059 72.98 47.6982 71.9717C48.6897 70.9635 49.4828 69.7872 50.0776 68.4429C50.7716 67.0986 51.2674 65.5863 51.5648 63.9059C51.8622 62.2255 51.7135 60.2931 51.1186 58.1086ZM36.9908 55.336C36.0986 53.9917 35.4541 53.6556 35.0576 54.3277C34.7601 54.8318 34.3636 55.2519 33.8679 55.588C34.8593 56.5962 35.5037 56.9323 35.8011 56.5962C36.0986 56.0921 36.4951 55.672 36.9908 55.336ZM44.4265 59.873C44.03 59.7049 43.683 59.873 43.3855 60.3771C43.1872 60.7132 42.8402 60.7132 42.3445 60.3771C41.6505 62.2255 40.6095 63.4018 39.2215 63.9059C37.9327 64.41 36.8421 65.3342 35.9498 66.6785C37.6353 67.3507 39.0233 66.8466 40.1138 65.1662C41.2044 63.4858 42.4437 62.4776 43.8317 62.1415L44.4265 59.873ZM37.8831 57.3524C36.9908 57.0163 36.1977 57.3524 35.5037 58.3606C34.9089 59.3689 34.6114 60.2931 34.6114 61.1333C35.2063 60.7972 35.7516 60.2931 36.2473 59.6209C36.8421 58.9488 37.3874 58.1926 37.8831 57.3524ZM10.8172 41.7249C10.4207 41.7249 10.0241 42.061 9.62752 42.7331C9.3301 43.4053 9.08224 44.0774 8.88395 44.7496C8.78481 45.4217 8.78481 46.0939 8.88395 46.766C9.08224 47.4382 9.52838 47.7742 10.2224 47.7742C10.4207 46.766 10.5694 45.8418 10.6685 45.0016C10.7677 44.1614 10.8172 43.0692 10.8172 41.7249ZM26.8783 65.9224C26.9775 64.5781 26.8287 63.4858 26.4322 62.6456C26.1347 61.6374 25.8869 60.7132 25.6886 59.873C24.598 59.2008 23.7058 58.3606 23.0118 57.3524C22.4169 56.1761 21.7229 55.1679 20.9298 54.3277C20.0375 54.4958 19.3435 54.6638 18.8478 54.8318C18.3521 54.8318 18.0051 55.0839 17.8068 55.588C18.3025 55.7561 18.6991 55.7561 18.9965 55.588C19.2939 55.2519 19.5913 54.9999 19.8888 54.8318C20.0871 57.1844 19.6905 58.7807 18.6991 59.6209C17.7076 60.2931 16.9641 61.4693 16.4684 63.1497C17.6581 62.8137 18.6495 62.2255 19.4426 61.3853C20.2358 60.3771 21.2768 60.041 22.5656 60.3771C23.0613 61.3853 23.21 62.3936 23.0118 63.4018C22.9126 64.41 22.6648 65.3342 22.2682 66.1744C21.8716 66.8466 21.4255 67.4347 20.9298 67.9388C20.4341 68.4429 20.0375 68.863 19.7401 69.1991C19.6409 70.5434 19.4922 71.4676 19.2939 71.9717C19.0956 72.4758 18.8478 72.98 18.5503 73.4841C18.8478 75.5005 18.9965 76.6768 18.9965 77.0129C19.4922 77.0129 19.9383 77.0969 20.3349 77.2649C20.8306 77.433 21.3759 77.3489 21.9708 77.0129C22.3673 76.8448 22.863 76.2567 23.4579 75.2485C24.0528 74.2402 24.598 73.148 25.0937 71.9717C25.5895 70.6274 25.986 69.4512 26.2835 68.4429C26.68 67.2667 26.8783 66.4265 26.8783 65.9224ZM10.5198 49.2866C10.0241 49.1185 9.62752 49.2026 9.3301 49.5386C9.13181 49.8747 8.88395 50.1268 8.58653 50.2948C8.68567 51.135 8.58653 51.8072 8.2891 52.3113C8.09081 52.8154 8.09081 53.4875 8.2891 54.3277C9.08224 52.9834 9.82581 51.303 10.5198 49.2866ZM21.9708 63.9059C20.9793 62.8977 20.2358 62.7296 19.7401 63.4018C19.2443 63.9059 18.6495 64.326 17.9555 64.6621C16.7658 65.5023 15.9231 66.2584 15.4274 66.9306C15.0308 67.6027 14.3368 67.8548 13.3454 67.6868C13.6428 68.863 14.0394 69.8713 14.5351 70.7114C15.0308 71.3836 15.3778 72.3918 15.5761 73.7361C17.1624 72.0557 18.3521 70.3754 19.1452 68.695C19.9383 66.8466 20.8802 65.2502 21.9708 63.9059ZM11.8582 55.588C11.1642 55.588 10.7181 55.8401 10.5198 56.3442C10.3215 56.8483 9.97452 57.2684 9.47881 57.6045C10.1728 58.7807 10.6685 58.9488 10.9659 58.1086C11.3625 57.2684 11.6599 56.4282 11.8582 55.588ZM14.9812 60.6292C14.4855 60.7972 13.9402 61.1333 13.3454 61.6374C12.7505 62.1415 12.2548 62.7296 11.8582 63.4018C11.5608 63.9059 11.3625 64.494 11.2634 65.1662C11.2634 65.8383 11.6599 66.5105 12.4531 67.1826C12.5522 65.6703 12.9488 64.5781 13.6428 63.9059C14.4359 63.0657 14.8821 61.9735 14.9812 60.6292ZM50.5238 62.1415C50.5238 63.1497 50.3255 63.8219 49.9289 64.158C49.6315 64.494 49.3837 65.0822 49.1854 65.9224C47.9957 66.7625 47.4008 66.8466 47.4008 66.1744C47.9957 64.6621 48.4914 63.6538 48.8879 63.1497C49.3837 62.6456 49.6811 61.8894 49.7802 60.8812L50.5238 62.1415ZM48.4418 63.4018C47.5495 63.9059 47.0042 63.9899 46.8059 63.6538C47.4008 63.1497 47.8469 62.8977 48.1444 62.8977C48.4418 62.7296 48.5409 62.2255 48.4418 61.3853V63.4018ZM47.2521 67.4347C47.4504 68.2749 47.3017 69.0311 46.8059 69.7032C46.4094 70.2073 46.112 70.7955 45.9137 71.4676C46.2111 70.2913 46.3598 69.4512 46.3598 68.947C46.4589 68.4429 46.4094 68.0228 46.2111 67.6868L47.2521 67.4347Z" fill="#8EA1D0"/>
</svg>
